<svg xmlns="http://www.w3.org/2000/svg" viewBox="0 0 128 128" width="128" height="128" role="img" aria-label="Hotjar"><title>Hotjar</title><defs><linearGradient id="bg" x1="0%" y1="0%" x2="92%" y2="100%"><stop offset="0%" stop-color="#5FD080"/><stop offset="100%" stop-color="#2FA85A"/></linearGradient><filter id="lift" x="-30%" y="-30%" width="160%" height="160%"><feDropShadow dx="0" dy="3" stdDeviation="3.5" flood-color="#0B4F2A" flood-opacity="0.30"/></filter></defs><rect width="128" height="128" rx="28" fill="url(#bg)"/><g transform="translate(64,64)" filter="url(#lift)"><path d="M2,-42 C20,-22 30,-14 30,8 A30,30 0 1 1 -30,8 C-30,-8 -16,-12 -8,-26 C-6,-12 4,-14 2,-42 Z" fill="#FF5A1F"/><path d="M6,2 C16,10 18,18 10,26 A14,14 0 1 1 -10,12 C-10,4 -2,2 4,16 Z" fill="#FFC24D"/></g></svg>